# xmcd CD database file
#
# Track frame offsets:
#	150
#	12555
#	25001
#	33364
#	43404
#	55108
#	63181
#	72569
#	86359
#	98169
#	110717
#	123067
#	136585
#	148557
#	161765
#	180541
#	194570
#	211464
#	225574
#	236204
#	253554
#	268071
#	286009
#	296933
#	309087
#	325953
#
# Disc length: 4613 seconds
#
# Revision: 0
# Processed by: cddbd v1.5.2PL0 Copyright (c) Steve Scherf et al.
# Submitted via: CDex 1.70beta2
#
DISCID=7c12031a
DTITLE=Johnny Cash - The Very Best Of
DYEAR=1900
DGENRE=Country
TTITLE0=Folsom Prison Blues (Live)
TTITLE1=I Walk The Line
TTITLE2=Guess Things Happen That Way
TTITLE3=Get Rythm
TTITLE4=I Still Miss Someone
TTITLE5=Five Feet High An Rising
TTITLE6=I Got Stripes
TTITLE7=Don't Take Your Guns To Town
TTITLE8=Ring Of Fire
TTITLE9=Jackson
TTITLE10=Understand Your Man
TTITLE11=Tennessee Flat-Top Box
TTITLE12=When It's Springtime in Alaska
TTITLE13=San Quentin (Live)
TTITLE14=The Ballad Of Ira Hayes
TTITLE15=The Long Black Veil
TTITLE16=A Boy Named Sue
TTITLE17=Orange Blossom Special
TTITLE18=Daddy Sang Bass
TTITLE19=Where Were You
TTITLE20=Desperado
TTITLE21=Cadillac
TTITLE22=Oh, Lonesome Me
TTITLE23=Cocaine
TTITLE24=Boy Named Sue
TTITLE25=The Man Comes Around
EXTD=
EXTT0=
EXTT1=
EXTT2=
EXTT3=
EXTT4=
EXTT5=
EXTT6=
EXTT7=
EXTT8=
EXTT9=
EXTT10=
EXTT11=
EXTT12=
EXTT13=
EXTT14=
EXTT15=
EXTT16=
EXTT17=
EXTT18=
EXTT19=
EXTT20=
EXTT21=
EXTT22=
EXTT23=
EXTT24=
EXTT25=
PLAYORDER=
